<?xml version="1.0" encoding="UTF-8" standalone="no"?>
<!-- Created with Inkscape (http://www.inkscape.org/) -->
<svg
   xmlns:dc="http://purl.org/dc/elements/1.1/"
   xmlns:cc="http://creativecommons.org/ns#"
   xmlns:rdf="http://www.w3.org/1999/02/22-rdf-syntax-ns#"
   xmlns:svg="http://www.w3.org/2000/svg"
   xmlns="http://www.w3.org/2000/svg"
   xmlns:sodipodi="http://sodipodi.sourceforge.net/DTD/sodipodi-0.dtd"
   xmlns:inkscape="http://www.inkscape.org/namespaces/inkscape"
   width="682"
   height="163.6591"
   id="svg2"
   sodipodi:version="0.32"
   inkscape:version="0.46"
   sodipodi:docbase="D:\Bureau"
   sodipodi:docname="carrier.svg"
   inkscape:output_extension="org.inkscape.output.svg.inkscape"
   version="1.0"
   sodipodi:modified="true">
  <defs
     id="defs4">
    <inkscape:perspective
       sodipodi:type="inkscape:persp3d"
       inkscape:vp_x="0 : 675 : 1"
       inkscape:vp_y="0 : 1000 : 0"
       inkscape:vp_z="960 : 675 : 1"
       inkscape:persp3d-origin="480 : 450 : 1"
       id="perspective84" />
  </defs>
  <sodipodi:namedview
     id="base"
     pagecolor="#ffffff"
     bordercolor="#666666"
     borderopacity="1.0"
     inkscape:pageopacity="0.0"
     inkscape:pageshadow="2"
     inkscape:zoom="0.75496471"
     inkscape:cx="413.69038"
     inkscape:cy="456.01111"
     inkscape:document-units="px"
     inkscape:current-layer="layer1"
     inkscape:window-width="1600"
     inkscape:window-height="1140"
     inkscape:window-x="-5"
     inkscape:window-y="-3"
     showguides="false"
     inkscape:guide-bbox="true"
     showgrid="false"
     showborder="true"
     inkscape:showpageshadow="true"
     width="960px"
     height="1350px">
    <sodipodi:guide
       orientation="horizontal"
       position="1520.9113"
       id="guide2625" />
    <sodipodi:guide
       orientation="horizontal"
       position="1090"
       id="guide2487" />
    <sodipodi:guide
       orientation="horizontal"
       position="589"
       id="guide33346" />
  </sodipodi:namedview>
  <metadata
     id="metadata7">
    <rdf:RDF>
      <cc:Work
         rdf:about="">
        <dc:format>image/svg+xml</dc:format>
        <dc:type
           rdf:resource="http://purl.org/dc/dcmitype/StillImage" />
        <dc:title>Comparaison des plus grands bateaux</dc:title>
        <dc:creator>
          <cc:Agent>
            <dc:title>Delphine Ménard</dc:title>
          </cc:Agent>
        </dc:creator>
        <dc:rights>
          <cc:Agent>
            <dc:title />
          </cc:Agent>
        </dc:rights>
        <cc:license
           rdf:resource="http://creativecommons.org/licenses/by-sa/2.0/fr/deed.fr" />
      </cc:Work>
      <cc:License
         rdf:about="http://creativecommons.org/licenses/by-sa/2.5/">
        <cc:permits
           rdf:resource="http://web.resource.org/cc/Reproduction" />
        <cc:permits
           rdf:resource="http://web.resource.org/cc/Distribution" />
        <cc:requires
           rdf:resource="http://web.resource.org/cc/Notice" />
        <cc:requires
           rdf:resource="http://web.resource.org/cc/Attribution" />
        <cc:permits
           rdf:resource="http://web.resource.org/cc/DerivativeWorks" />
        <cc:requires
           rdf:resource="http://web.resource.org/cc/ShareAlike" />
      </cc:License>
    </rdf:RDF>
  </metadata>
  <g
     inkscape:label="Calque 1"
     inkscape:groupmode="layer"
     id="layer1"
     transform="translate(-239.00001,237.0708)">
    <path
       style="fill:#000000;fill-opacity:0.64610398"
       d="M 503.18749,-237.047 C 502.96815,-237.18258 502.77177,-236.70994 502.90625,-236.3595 C 503.03753,-236.01752 503.34375,-236.18902 503.34375,-236.6095 C 503.34375,-236.78616 503.28203,-236.98856 503.18749,-237.047 z"
       id="path10395" />
    <path
       style="fill:#808080;fill-opacity:0.72548996;stroke:none"
       d="M 258.23749,-106.24894 C 258.23749,-106.7609 257.99043,-107.17978 257.68843,-107.17978 C 257.38645,-107.17978 256.94749,-108.71566 256.71295,-110.59288 C 256.47839,-112.47008 256.04445,-114.00598 255.74861,-114.00598 C 254.82133,-115.67952 254.58459,-117.81028 253.89547,-119.59106 C 253.63271,-119.59106 253.27169,-120.14956 253.09317,-120.83218 C 252.87387,-121.67088 252.24671,-122.07332 251.15911,-122.07332 C 250.01291,-122.04632 249.47765,-122.81634 248.65539,-123.31444 C 247.17287,-123.31444 246.94555,-124.3859 247.39975,-129.23276 C 247.80681,-133.57676 247.92545,-133.86404 249.31223,-133.86404 C 250.65081,-133.86404 250.79073,-134.12832 250.79073,-136.65658 C 250.79073,-139.37434 250.84473,-139.4516 252.80757,-139.54208 C 255.21245,-138.72272 252.01795,-140.80622 251.41129,-142.03952 L 251.41129,-143.92698 L 245.20565,-143.48278 C 239.16739,-143.05062 239.00001,-143.07388 239.00001,-144.34672 C 239.00001,-145.45908 239.37137,-145.65474 241.48227,-145.65474 C 243.27501,-145.65474 243.96453,-145.91334 243.96453,-146.5856 C 244.18515,-147.41232 245.22607,-147.7208 245.82621,-148.137 C 245.82621,-148.54516 261.65061,-148.75756 292.05825,-148.75756 L 338.29027,-148.75756 L 338.29027,-150.92954 C 338.29027,-152.44652 338.00953,-153.10152 337.35943,-153.10152 C 335.88361,-153.10152 336.15933,-156.25014 337.66971,-156.64512 C 338.64207,-156.89938 338.91085,-157.49158 338.91085,-159.37952 C 338.91085,-161.51464 339.08193,-161.78942 340.41149,-161.78942 C 343.08053,-161.78942 343.87535,-161.15006 343.87535,-159.0029 C 343.87535,-157.49158 344.19395,-156.88634 345.11649,-156.64512 C 346.62687,-156.25014 346.90259,-153.10152 345.42677,-153.10152 C 344.14031,-152.3886 345.10687,-151.2159 345.73705,-149.9987 C 345.73705,-148.7835 346.15077,-148.75756 365.54341,-148.75756 L 453.09465,-148.75756 L 453.09465,-157.13518 C 453.09465,-165.09906 453.15595,-165.5128 454.33577,-165.5128 C 455.51987,-165.5128 455.57689,-165.09906 455.57689,-156.51462 C 455.57689,-148.92996 455.72311,-147.51644 456.50775,-147.51644 C 457.01971,-147.51644 457.43859,-147.7957 457.43859,-148.137 C 457.43859,-148.53348 462.81683,-148.75756 472.33213,-148.75756 L 487.22567,-148.75756 L 487.22567,-150.92954 C 487.66949,-153.21654 488.76937,-153.38892 489.08737,-155.89406 L 489.08737,-158.6866 L 485.05369,-158.6866 C 482.77827,-158.6866 481.02003,-158.9571 481.02003,-159.30716 C 481.02003,-159.64846 480.46151,-159.92772 479.77889,-159.92772 C 479.08939,-159.92772 478.53777,-160.34146 478.53777,-160.85858 C 478.53777,-161.37054 478.11889,-161.78942 477.60693,-161.78942 C 477.09495,-161.78942 476.67607,-161.37054 476.67607,-160.85858 C 476.67607,-159.29562 473.77897,-159.70022 473.34383,-161.324 C 472.51451,-164.41862 472.76783,-164.72326 476.42289,-165.02634 C 478.46169,-165.19538 480.12165,-165.67508 480.44707,-166.18916 C 480.75177,-166.67046 481.00533,-169.0888 481.01053,-171.5633 C 481.01953,-175.81566 480.94345,-176.06288 479.62377,-176.07088 C 475.96577,-176.09308 475.43495,-176.61236 475.43495,-180.16844 C 475.43495,-183.46666 475.45865,-183.50918 477.29665,-183.50918 C 478.32057,-183.50918 479.15833,-183.20998 479.15833,-182.84428 C 479.15833,-182.4786 479.57721,-181.76052 480.08919,-181.24854 C 480.91659,-180.42112 481.02003,-180.59842 481.02003,-182.84428 C 481.02003,-185.23788 480.92205,-185.37086 479.15833,-185.37086 C 478.13441,-185.37086 477.29665,-185.65012 477.29665,-185.99142 C 477.29665,-186.33274 476.87777,-186.612 476.36579,-186.612 C 475.01259,-186.612 475.05883,-191.91996 476.41657,-192.44096 C 478.21155,-193.12976 479.15833,-192.83126 479.15833,-191.5765 C 479.15833,-190.89388 479.43759,-190.33538 479.77889,-190.33538 C 480.12021,-190.33538 480.39947,-190.71936 480.39947,-191.18866 C 480.39947,-192.0395 482.95619,-192.81764 485.75183,-192.81764 C 486.56247,-192.81764 487.22567,-193.09688 487.22567,-193.4382 C 487.22567,-193.77952 486.66717,-194.05876 485.98453,-194.05876 C 485.30193,-194.05876 484.74341,-194.45546 484.74341,-194.9403 C 484.74341,-195.42514 483.90565,-196.00584 482.88171,-196.23074 C 481.43215,-196.54912 481.02003,-196.97558 481.02003,-198.15726 C 481.02003,-199.34704 481.42215,-199.7553 482.88171,-200.0472 C 483.90565,-200.252 484.74341,-200.6639 484.74341,-200.96254 C 484.74341,-201.26118 485.44155,-201.50554 486.29483,-201.50554 C 487.77729,-201.50554 487.84623,-201.34004 487.84623,-197.78214 C 487.84623,-194.22426 487.91517,-194.05876 489.39765,-194.05876 C 490.25091,-194.05876 490.94905,-193.77952 490.94905,-193.4382 C 490.94905,-193.07966 492.91419,-192.81764 495.60329,-192.81764 L 500.25751,-192.81764 L 500.25751,-197.0892 C 500.25751,-201.67828 499.91093,-202.0943 496.06871,-202.11762 C 495.24503,-202.12262 494.67243,-202.50784 494.67243,-203.05694 C 494.67243,-203.63614 494.08639,-203.9878 493.12103,-203.9878 C 491.69603,-203.9878 491.56961,-204.21534 491.56961,-206.78034 C 491.56961,-208.31622 491.84887,-209.57286 492.19019,-209.57286 C 492.53149,-209.57286 492.81075,-209.99174 492.81075,-210.50372 C 492.81075,-211.11592 493.42325,-211.43456 494.60009,-211.43456 C 496.50707,-211.43456 497.12931,-210.33496 497.14625,-206.93546 C 497.15321,-205.53112 497.42943,-205.22892 498.70611,-205.22892 C 500.18857,-205.22892 500.25751,-205.3944 500.25751,-208.9523 C 500.25751,-211.84828 500.05069,-212.67568 499.32667,-212.67568 C 498.81471,-212.67568 498.39583,-212.91926 498.39583,-213.21694 C 498.39583,-213.51462 497.27881,-213.9368 495.91357,-214.15512 C 493.81047,-214.49142 493.43131,-214.78154 493.43131,-216.0543 C 493.43131,-217.86278 495.10969,-218.5497 498.13947,-217.9813 L 500.25751,-217.58396 L 500.25751,-221.2631 C 500.25751,-225.19394 499.80197,-225.6764 496.06871,-225.69906 C 494.99531,-225.70558 494.67243,-226.0663 494.67243,-227.25894 C 494.67243,-228.22428 495.02411,-228.81036 495.60329,-228.81036 C 496.11525,-228.81036 496.53413,-229.22924 496.53413,-229.7412 C 496.53413,-230.92654 501.82867,-231.06698 502.38327,-229.89634 C 502.58545,-229.4697 502.61299,-230.86598 502.44451,-232.99916 L 502.13827,-236.8777 L 504.29119,-236.8777 L 506.44411,-236.8777 L 506.05141,-233.12026 C 505.68709,-229.63478 505.75515,-229.3376 506.99175,-229.01422 C 508.91035,-228.51248 508.85699,-225.71076 506.92857,-225.69906 C 503.46267,-225.67802 502.73977,-225.08816 502.73977,-222.28112 L 502.73977,-219.62 L 505.22203,-219.95294 C 507.44583,-220.2512 507.70429,-220.14814 507.70429,-218.96304 C 507.70429,-218.2009 508.09885,-217.6402 508.63513,-217.6402 C 509.21431,-217.6402 509.56599,-217.05412 509.56599,-216.0888 C 509.56599,-215.23552 509.28673,-214.53738 508.94541,-214.53738 C 508.60411,-214.53738 508.32485,-213.69962 508.32485,-212.67568 C 508.32485,-211.22772 508.04907,-210.814 507.08373,-210.814 C 506.18837,-210.814 505.84259,-210.40028 505.84259,-209.32898 C 505.84259,-208.51222 505.39473,-207.6721 504.84739,-207.46206 C 504.28975,-207.24808 504.00529,-206.68104 504.20047,-206.1725 C 504.39203,-205.67328 504.14169,-204.85782 503.64425,-204.36036 C 502.32009,-203.03618 502.34343,-192.81764 503.67063,-192.81764 C 504.18259,-192.81764 504.60147,-193.09688 504.60147,-193.4382 C 504.60147,-193.77952 505.02035,-194.05876 505.53231,-194.05876 C 506.15287,-194.05876 506.46317,-194.67932 506.46317,-195.92046 C 506.46317,-196.94438 506.74241,-197.78214 507.08373,-197.78214 C 507.42503,-197.78214 507.70429,-198.61992 507.70429,-199.64384 C 507.70429,-201.29868 507.91111,-201.50554 509.56599,-201.50554 C 511.22085,-201.50554 511.42767,-201.29868 511.42767,-199.64384 C 511.42767,-198.07174 511.66901,-197.78214 512.97909,-197.78214 C 514.28915,-197.78214 514.53049,-197.49254 514.53049,-195.92046 C 514.53049,-194.54246 514.81267,-194.0715 515.61647,-194.10776 C 516.26523,-194.13702 516.39013,-194.28276 515.92677,-194.46976 C 514.65671,-194.98224 514.99951,-197.65042 516.39219,-198.09244 C 517.87887,-198.56428 520.11557,-197.94964 520.11557,-197.06926 C 520.11557,-196.72316 523.07045,-199.3949 526.68201,-203.00644 C 530.46019,-206.78462 533.75401,-209.57286 534.43907,-209.57286 C 536.95371,-209.57286 535.53331,-207.07716 529.73431,-201.30636 C 526.49187,-198.0797 523.83895,-195.2686 523.83895,-195.0595 C 523.83895,-194.8504 525.09559,-194.67932 526.63149,-194.67932 C 529.01031,-194.67932 529.42403,-194.49546 529.42403,-193.4382 C 529.42403,-192.31728 529.01031,-192.19708 525.15243,-192.19708 C 520.01473,-192.19708 520.13637,-192.426 520.12401,-182.73348 C 520.11607,-176.4733 520.19203,-176.0624 521.35671,-176.0624 C 522.26689,-176.0624 522.59783,-175.6487 522.59783,-174.51098 C 522.59783,-173.3733 522.26689,-172.95958 521.35671,-172.95958 C 520.25533,-172.95958 520.11557,-172.54584 520.11557,-169.28552 C 520.11557,-165.71448 520.16739,-165.60006 521.96211,-165.20588 C 522.97773,-164.98278 524.08265,-164.96962 524.41751,-165.17658 C 524.75243,-165.38354 526.85365,-165.36566 529.08689,-165.13686 C 532.82367,-164.75404 533.14741,-164.60398 533.14741,-163.25512 C 533.14741,-162.44902 532.89845,-161.78942 532.59413,-161.78942 C 532.28979,-161.78942 531.86565,-161.09128 531.65149,-160.238 L 531.26207,-158.6866 L 521.65519,-158.6866 L 512.04823,-158.6866 L 512.04823,-153.72208 L 512.04823,-148.75756 L 548.97181,-148.75756 L 585.89537,-148.75756 L 585.89537,-158.06604 C 585.89537,-166.96076 585.95053,-167.3745 587.13649,-167.3745 C 588.32245,-167.3745 588.37763,-166.96076 588.37763,-158.06604 L 588.37763,-148.75756 L 606.32229,-148.75756 L 710.00821,-148.75756 L 710.00821,-158.06604 L 710.00821,-167.3745 L 711.55961,-167.3745 L 713.11103,-167.3745 L 713.11103,-158.06604 C 713.11103,-149.1713 713.16619,-148.75756 714.35215,-148.75756 C 715.53811,-148.75756 715.59327,-149.1713 715.59327,-158.06604 L 715.59327,-167.3745 L 717.14469,-167.3745 L 718.69611,-167.3745 L 718.69611,-158.06604 L 718.69611,-148.75756 L 728.62513,-148.75756 C 734.83077,-148.75756 738.55415,-148.52486 738.55415,-148.137 C 738.55415,-147.73432 746.72493,-147.51644 761.82531,-147.51644 C 776.92567,-147.51644 785.09647,-147.73432 785.09647,-148.137 C 785.09647,-148.47832 786.63235,-148.75756 788.50957,-148.75756 C 790.38677,-148.75756 791.92267,-148.47832 791.92267,-148.137 C 791.92267,-147.79228 793.57753,-147.51644 795.64605,-147.51644 L 802.47227,-147.51644 L 808.98817,-147.51644 L 815.50407,-147.51644 L 815.50407,-156.46292 C 815.50407,-163.0133 815.71189,-165.50636 816.27981,-165.77138 C 816.88477,-166.05374 816.88885,-166.21168 816.29797,-166.48932 C 815.71403,-166.76368 815.70879,-167.02542 816.27499,-167.63154 C 816.80775,-168.20184 817.20989,-168.23192 817.73949,-167.741 C 818.28347,-167.23674 818.28937,-166.93358 817.76253,-166.55156 C 817.24241,-166.17446 817.26061,-165.9557 817.83123,-165.72416 C 818.40133,-165.49282 818.60691,-163.03856 818.60691,-156.46292 L 818.60691,-147.51644 L 821.39945,-147.51644 L 824.19199,-147.51644 L 824.19199,-156.51462 C 824.19199,-165.09906 824.24903,-165.5128 825.43311,-165.5128 C 826.61293,-165.5128 826.67429,-165.09906 826.67429,-157.13518 L 826.67429,-148.75756 L 829.15653,-148.75756 C 830.52177,-148.75756 831.63877,-148.47832 831.63877,-148.137 C 831.63877,-147.75928 834.43131,-147.51644 838.77525,-147.51644 L 857.08189,-147.51644 L 857.08189,-156.51462 C 857.08189,-165.09906 857.13893,-165.5128 858.32301,-165.5128 C 859.50709,-165.5128 859.56413,-165.09906 859.56413,-156.51462 L 859.56413,-147.51644 L 861.11555,-147.51644 L 862.66697,-147.51644 L 862.66697,-156.51462 C 862.66697,-165.09906 862.72407,-165.5128 863.90815,-165.5128 C 865.09217,-165.5128 865.14927,-165.09906 865.14927,-156.51462 L 865.14927,-147.51644 L 876.93995,-147.51644 L 876.93995,-152.17068 C 876.93995,-156.41118 877.05029,-156.8249 878.18107,-156.8249 C 879.31185,-156.8249 879.42219,-156.41118 879.42219,-152.17068 C 879.42219,-147.6199 879.45671,-147.51644 880.97361,-147.51644 L 882.52503,-147.51644 L 882.52503,-156.51462 C 882.52503,-165.09906 882.58211,-165.5128 883.76615,-165.5128 C 884.95023,-165.5128 885.00733,-165.09906 885.00733,-156.51462 L 885.00733,-147.51644 L 889.35121,-147.51644 C 891.83347,-147.51644 893.69517,-147.78242 893.69517,-148.137 C 893.69517,-148.51134 896.28087,-148.75756 900.21113,-148.75756 C 903.79485,-148.75756 906.72703,-148.50054 906.72703,-148.18634 C 906.72703,-147.87214 907.56481,-147.43104 908.58875,-147.20616 C 911.69311,-145.7106 914.95405,-144.05216 917.89717,-142.50266 C 917.89717,-142.18846 918.59531,-141.93136 919.44859,-141.93136 C 920.58627,-141.93136 921.00001,-141.60042 921.00001,-140.69024 C 921.00001,-139.5134 920.58627,-139.4491 913.01385,-139.4491 L 905.02777,-139.4491 L 904.67651,-137.28482 C 904.48333,-136.09446 903.64787,-134.48876 902.81991,-133.71658 C 901.99191,-132.94442 901.12173,-131.69858 900.88617,-130.94812 C 900.65067,-130.19762 899.89945,-129.40634 899.21683,-129.1897 C 898.53427,-128.97306 897.14265,-127.9814 896.12439,-126.98594 C 895.10609,-125.99056 893.89357,-125.17614 893.42991,-125.17614 C 892.96619,-125.17614 892.42613,-124.75726 892.22963,-124.24528 C 891.12777,-123.19878 889.84251,-122.5627 888.63379,-121.73232 C 887.05825,-121.23226 884.38673,-118.50382 884.38673,-117.39488 C 883.51715,-116.45818 883.08959,-115.52544 882.52503,-114.38744 C 881.89975,-112.53902 881.38471,-110.95466 881.20711,-108.88632 L 881.09239,-105.31808 L 569.66495,-105.31808 C 293.25427,-105.31808 258.23749,-105.42276 258.23749,-106.24894 z"
       id="path2265"
       sodipodi:nodetypes="cssccsccsssccccsscccccsssssscccccssssccccccsssssssssssssssssssssssssssssssssscccsssssssssssssscccssssscccccsscccssssssssssssssssssssssssssssssssssssssssscccccccccscccccccccscccccccssssscccccsssssscccccscccscccscccccsccccsscccscccsssccsscccssssscccccccc" />
    <path
       style="fill:#c40000;fill-opacity:0.74675299;fill-rule:evenodd;stroke:none;stroke-width:1px;stroke-linecap:butt;stroke-linejoin:round;stroke-opacity:1"
       d="M 258.43163,-106.03457 L 259.93202,-97.53218 L 274.12804,-96.6518 L 273.4548,-77.09272 L 281.33078,-77.07323 L 282.0702,-96.03218 C 282.0702,-96.03218 286.27662,-95.18838 295.4563,-94.18842 L 294.15835,-84.00527 L 290.87749,-83.66727 C 290.87749,-83.66727 293.59967,-90.91031 290.44076,-90.97316 C 287.42514,-91.03601 290.05349,-83.62491 290.05349,-83.62491 L 286.78335,-83.56241 L 286.70235,-82.56941 L 289.99099,-82.39301 C 289.99099,-82.39301 287.65781,-75.47211 290.3588,-75.45731 C 293.20308,-75.44251 290.88859,-82.39261 290.88859,-82.39261 L 302.28104,-79.05409 L 303.7498,-80.17909 C 303.7498,-80.17909 304.27202,-80.20587 304.34354,-80.21033 L 304.49713,-75.95293 L 312.40234,-75.94019 L 312.61822,-83.55146 C 319.65944,-83.86724 328.69335,-83.90525 330.89309,-83.24533 C 334.07219,-82.29161 328.78462,-78.88953 327.1593,-78.56383 L 317.21854,-78.22513 C 317.21854,-78.22513 319.37731,-82.06418 316.85792,-82.30276 C 314.4805,-82.52789 316.1614,-78.05409 316.1614,-78.05409 L 314.39494,-77.87769 L 314.31024,-77.28929 L 316.21854,-77.05409 C 316.21854,-77.05409 314.66841,-73.41169 316.71854,-73.41169 C 319.26475,-73.41169 317.2169,-77.05409 317.2169,-77.05409 L 327.0483,-77.29111 L 357.7498,-76.83533 L 483.3505,-75.28865 L 639.50366,-75.71999 L 845.24022,-76.93835 C 845.24022,-76.93835 889.1488,-77.98569 891.31268,-79.23501 C 898.31253,-83.27637 891.29731,-91.32531 889.23486,-93.35702 C 886.39673,-96.15284 881.94453,-103.95006 880.88195,-105.63968 L 258.43163,-106.03457 z"
       id="path22273"
       sodipodi:nodetypes="ccccccccczcccczcccccccscczccccsccccccsscc" />
    <path
       style="fill:#960000;fill-opacity:0.74350604;fill-rule:evenodd;stroke:none;stroke-width:1px;stroke-linecap:butt;stroke-linejoin:miter;stroke-opacity:0.74509798"
       d="M 671.62499,-151.1095 L 681.56249,-134.797 L 671.62499,-151.1095 z"
       id="path2449" />
    <path
       style="fill:#960000;fill-opacity:0.74350604;fill-rule:evenodd;stroke:none;stroke-width:1px;stroke-linecap:butt;stroke-linejoin:miter;stroke-opacity:0.74509798"
       d="M 668.12499,-148.672 L 661.99999,-134.672 L 668.12499,-148.672 z"
       id="path2221" />
    <path
       style="fill:#960000;fill-opacity:0.74350604;fill-rule:evenodd;stroke:none;stroke-width:1px;stroke-linecap:butt;stroke-linejoin:miter;stroke-opacity:0.74509798"
       d="M 25.09375,121 L 28.6875,121 L 25,120.9375 L 25.09375,121 z"
       id="path2546"
       transform="translate(234,-242.234)" />
  </g>
</svg>
