<?xml version="1.0" encoding="UTF-8"?>
<!-- Generator: Adobe Illustrator 13.0.0, SVG Export Plug-In . SVG Version: 6.00 Build 14948)  -->
<!DOCTYPE svg PUBLIC "-//W3C//DTD SVG 1.0//EN" "http://www.w3.org/TR/2001/REC-SVG-20010904/DTD/svg10.dtd">
<svg version="1.0" id="Layer_1" xmlns="http://www.w3.org/2000/svg" xmlns:xlink="http://www.w3.org/1999/xlink" x="0px" y="0px" width="462.325px" height="73.735px" viewBox="0 0 462.325 73.735" enable-background="new 0 0 462.325 73.735" xml:space="preserve">
<path fill="#C5C6E4" d="M86.382,66.776c0,0-3.718-23.858-19.31-21.085C56.906,47.5,53.492,59.839,53.492,59.839  s-4.248-5.517-7.643-4.95s-7.747,6.352-7.747,6.352s0.408-33.66-27.168-31.181C-4.376,31.437,0.866,68.893,0.866,68.893  l85.361-0.103L86.382,66.776z"/>
<path fill="#F6F6F4" d="M86.382,66.002c0,0-8.871-14.769-19.057-13.07S53.745,67.079,53.745,67.079s-4.248-5.517-7.643-4.95  s-7.747,6.352-7.747,6.352S27.667,40.129,11.305,41.614c-15.31,1.39-9.821,30.739-9.821,30.739h85.053L86.382,66.002z"/>
<linearGradient id="SVGID_1_" gradientUnits="userSpaceOnUse" x1="49.022" y1="62.8545" x2="87.375" y2="62.8545" gradientTransform="matrix(0.9725, 0.2328, -0.2328, 0.9725, 55.2704, -30.3628)">
	<stop offset="0" style="stop-color: rgb(252, 238, 33);"/>
	<stop offset="0.4583" style="stop-color: rgb(252, 236, 33);"/>
	<stop offset="0.6234" style="stop-color: rgb(252, 229, 33);"/>
	<stop offset="0.7411" style="stop-color: rgb(251, 218, 32);"/>
	<stop offset="0.8363" style="stop-color: rgb(250, 201, 32);"/>
	<stop offset="0.9178" style="stop-color: rgb(249, 179, 31);"/>
	<stop offset="0.9886" style="stop-color: rgb(247, 152, 30);"/>
	<stop offset="1" style="stop-color: rgb(247, 147, 30);"/>
</linearGradient>
<polygon fill="url(#SVGID_1_)" stroke="#F7931E" stroke-width="0.5" points="103.354,64.854 99.701,51.953 87.001,47.648 98.141,40.188 98.308,26.78 108.849,35.07 121.65,31.085 117.025,43.672 124.77,54.616 111.371,54.105"/>
<linearGradient id="SVGID_2_" gradientUnits="userSpaceOnUse" x1="69.4707" y1="52.376" x2="89.1606" y2="52.376" gradientTransform="matrix(0.9725, 0.2328, -0.2328, 0.9725, 55.2704, -30.3628)">
	<stop offset="0" style="stop-color: rgb(252, 238, 33);"/>
	<stop offset="0.4583" style="stop-color: rgb(252, 236, 33);"/>
	<stop offset="0.6234" style="stop-color: rgb(252, 229, 33);"/>
	<stop offset="0.7411" style="stop-color: rgb(251, 218, 32);"/>
	<stop offset="0.8363" style="stop-color: rgb(250, 201, 32);"/>
	<stop offset="0.9178" style="stop-color: rgb(249, 179, 31);"/>
	<stop offset="0.9886" style="stop-color: rgb(247, 152, 30);"/>
	<stop offset="1" style="stop-color: rgb(247, 147, 30);"/>
</linearGradient>
<polygon fill="url(#SVGID_2_)" stroke="#F7931E" stroke-width="0.5" points="118.36,48.391 116.485,41.768 109.965,39.558 115.683,35.728 115.77,28.844 121.181,33.1 127.753,31.054 125.378,37.516 129.355,43.135 122.476,42.872"/>
<linearGradient id="SVGID_3_" gradientUnits="userSpaceOnUse" x1="33.457" y1="82.4756" x2="47.0049" y2="82.4756" gradientTransform="matrix(0.8395, 0.5433, -0.5433, 0.8395, 140.041, -57.3885)">
	<stop offset="0" style="stop-color: rgb(252, 238, 33);"/>
	<stop offset="0.4583" style="stop-color: rgb(252, 236, 33);"/>
	<stop offset="0.6234" style="stop-color: rgb(252, 229, 33);"/>
	<stop offset="0.7411" style="stop-color: rgb(251, 218, 32);"/>
	<stop offset="0.8363" style="stop-color: rgb(250, 201, 32);"/>
	<stop offset="0.9178" style="stop-color: rgb(249, 179, 31);"/>
	<stop offset="0.9886" style="stop-color: rgb(247, 152, 30);"/>
	<stop offset="1" style="stop-color: rgb(247, 147, 30);"/>
</linearGradient>
<polygon fill="url(#SVGID_3_)" stroke="#F7931E" stroke-width="0.5" points="125.665,39.354 125.965,34.627 122.242,31.699 126.828,30.524 128.461,26.077 130.998,30.079 135.73,30.256 132.709,33.904 134.002,38.462 129.599,36.716"/>
<path fill="#D6DBEE" d="M161.665,45.309c0,0,13.239-22.015,31.045-17.634c1.169,0.288,7.441,4.938,7.441,4.938l1.657,2.288  c0,0,4.096-14.101,16.107-13.629c12.638,0.496,14.125,11.151,14.125,11.151s9.416-1.734,11.646,1.982  c2.23,3.718,2.479,7.929,2.479,7.929s4.709-13.628,15.336-12.608c9.648,0.927,10.507,10.092,10.507,10.092l0.495,20.815  l-102.839-0.744L161.665,45.309z"/>
<path fill="#C5C6E4" d="M180.216,47.254c-1.439-0.618,7.672-6.578,11.414-8.154c3.911-1.647,17.112-2.515,22.052,5.513l5.301-2.969  c0,0,11.449-8.693,18.446,1.272c1.349,1.921,5.427-1.672,9.542-0.849c3.754,0.751,2.219,0.198,5.513,6.785  c1.456,2.911,4.234-2.128,7.116-6.45c1.647-2.471,6.793-4.94,6.793-4.94s6.521-5.059,13.38-2.265  c5.558,2.264,6.793,6.588,7.411,8.44c0,0,11.325-10.703,18.525-8.646c7.617,2.177,11.733,10.909,12.969,12.968  c1.126,1.877,3.293,3.294,3.293,3.294s-0.811-0.7,2.265,3.911c1.235,1.853,3.294,1.853,3.294,1.853s0.205,4.117,6.998-2.471  c6.857-6.65,9.47,7.41,9.47,8.028c0,11.732-10.498,8.439-10.498,8.439h-2.882l-231.093-0.5c0,0-0.617-17.292,11.322-17.909  s3.499-0.411,3.499-0.411s6.72-16.794,23.261-18.938c21.539-2.793,32.449,16.146,32.449,16.146s5.764-2.882,9.263-1.441  L180.216,47.254z"/>
<path fill="#F6F6F4" d="M99.652,72.456c0,0-0.617-17.292,11.322-17.909s3.499-0.411,3.499-0.411s6.587-19.351,23.261-18.938  s24.702,23.879,24.702,23.879s6.177-8.028,13.998-6.588c6.685,1.231,8.234,8.852,8.234,8.852s2.696-9.13-4.323-12.145  c-1.439-0.618,9.757-8.063,13.792-7.616c3.706,0.411,11.321,3.5,12.762,11.733l3.295-4.323c0,0,9.217-11.004,24.7,1.029  c1.854,1.44,2.885-5.352,7-4.528c3.754,0.751,5.145,10.703,4.115,13.791s3.504-9.057,8.443-7.204  c2.78,1.043,2.673,3.705,2.673,3.705s3.952-11.992,10.708-15.026c10.086-4.529,17.493-0.824,18.934,4.116  c0,0,8.859-10.291,16.06-8.233c7.617,2.177,8.441,9.675,7.818,15.026c-0.253,2.175-2.265,3.5-2.265,3.5s4.751-3.171,7.826,1.44  c1.235,1.853-0.411,5.97-0.411,5.97s-0.823,6.176,5.97-0.412c6.857-6.65,5.9,3.091,5.964,3.706c0.211,2.058,2.476-0.206,2.476-0.206  s2.207-5.029,5.347-6.793c3.299-1.853,7.622,3.705,4.534,13.791L99.652,72.456z"/>
<path fill="#C5C6E4" d="M441.657,23.879c0,0-14.531-14.296-21.64,15.525c-0.581,2.436-2.344-2.887-16.46,2.271l-1.357-1.357  c-6.243-1.629-10.043-0.271-13.029,4.072c-3.601,5.236-0.271,9.772-0.271,9.772s-4.987-2.272-7.973,1.8s-1.629,11.944-1.629,11.944  l74.923-0.271l0.814-60.807l-1.086,0.271c0,0-3.964,3.303-7.058,4.715c-7.081,3.232-5.942,10.055-5.942,10.055L441.657,23.879z"/>
<path fill="#F6F6F4" d="M454.048,8.558c0,0-2.79,4.28-3.528,7.601c-1.086,4.887,1.086,10.858,1.086,10.858s-3.215-5.23-5.701-1.086  c-0.814,1.357,2.172,11.673,2.172,11.673s-5.973,8.687-11.13,2.986c0,0,6.244-4.343,4.615-9.772s-6.787-5.158-6.787-5.158  s-6.786-1.628-14.658,15.202c-1.061,2.268-6.729-0.854-12.759,3.529c-2.986,2.171-1.086,8.144-1.086,8.144  c-1.357,5.7-7.329,4.071-7.329,4.071s6.243-12.758-0.271-14.115c-4.383-0.913-5.43-1.086-8.416,3.257  c-3.601,5.236,0.271,8.959,0.271,8.959s-6.516-1.358-9.501,2.714s-1.629,11.944-1.629,11.944l74.923-0.271l0.814-60.807  L454.048,8.558z"/>
<linearGradient id="SVGID_4_" gradientUnits="userSpaceOnUse" x1="307.4917" y1="46.2773" x2="327.4409" y2="46.2773">
	<stop offset="0" style="stop-color: rgb(252, 238, 33);"/>
	<stop offset="0.4583" style="stop-color: rgb(252, 236, 33);"/>
	<stop offset="0.6234" style="stop-color: rgb(252, 229, 33);"/>
	<stop offset="0.7411" style="stop-color: rgb(251, 218, 32);"/>
	<stop offset="0.8363" style="stop-color: rgb(250, 201, 32);"/>
	<stop offset="0.9178" style="stop-color: rgb(249, 179, 31);"/>
	<stop offset="0.9886" style="stop-color: rgb(247, 152, 30);"/>
	<stop offset="1" style="stop-color: rgb(247, 147, 30);"/>
</linearGradient>
<polygon fill="url(#SVGID_4_)" stroke="#F7931E" stroke-width="0.5" points="317.847,55.926 314.437,49.843 307.492,49.204 312.223,44.08 310.684,37.278 317.02,40.194 323.013,36.629 322.198,43.556 327.441,48.154 320.601,49.519"/>
<linearGradient id="SVGID_5_" gradientUnits="userSpaceOnUse" x1="25.6255" y1="186.7422" x2="46.8618" y2="186.7422" gradientTransform="matrix(0.3992, 0.9169, -0.9169, 0.3992, 316.267, -45.1291)">
	<stop offset="0" style="stop-color: rgb(252, 238, 33);"/>
	<stop offset="0.4583" style="stop-color: rgb(252, 236, 33);"/>
	<stop offset="0.6234" style="stop-color: rgb(252, 229, 33);"/>
	<stop offset="0.7411" style="stop-color: rgb(251, 218, 32);"/>
	<stop offset="0.8363" style="stop-color: rgb(250, 201, 32);"/>
	<stop offset="0.9178" style="stop-color: rgb(249, 179, 31);"/>
	<stop offset="0.9886" style="stop-color: rgb(247, 152, 30);"/>
	<stop offset="1" style="stop-color: rgb(247, 147, 30);"/>
</linearGradient>
<polygon fill="url(#SVGID_5_)" stroke="#F7931E" stroke-width="0.5" points="150.258,67.115 154.746,61.202 152.42,54.151 159.429,56.59 165.416,52.196 165.262,59.623 171.29,63.955 164.182,66.104 161.92,73.177 157.682,67.079"/>
<linearGradient id="SVGID_6_" gradientUnits="userSpaceOnUse" x1="591.0952" y1="35.7832" x2="611.0444" y2="35.7832" gradientTransform="matrix(0.6468, -0.7627, 0.7627, 0.6468, 37.9222, 446.286)">
	<stop offset="0" style="stop-color: rgb(252, 238, 33);"/>
	<stop offset="0.4583" style="stop-color: rgb(252, 236, 33);"/>
	<stop offset="0.6234" style="stop-color: rgb(252, 229, 33);"/>
	<stop offset="0.7411" style="stop-color: rgb(251, 218, 32);"/>
	<stop offset="0.8363" style="stop-color: rgb(250, 201, 32);"/>
	<stop offset="0.9178" style="stop-color: rgb(249, 179, 31);"/>
	<stop offset="0.9886" style="stop-color: rgb(247, 152, 30);"/>
	<stop offset="1" style="stop-color: rgb(247, 147, 30);"/>
</linearGradient>
<polygon fill="url(#SVGID_6_)" stroke="#F7931E" stroke-width="0.5" points="461.582,16.962 454.737,15.628 449.757,20.512 448.91,13.589 442.727,10.364 449.049,7.418 450.206,0.541 454.961,5.643 461.86,4.618 458.476,10.717"/>
</svg>