<?xml version="1.0" encoding="UTF-8"?>
<!-- Generator: Adobe Illustrator 12.0.1, SVG Export Plug-In . SVG Version: 6.00 Build 51448)  -->
<!DOCTYPE svg PUBLIC "-//W3C//DTD SVG 1.1//EN" "http://www.w3.org/Graphics/SVG/1.1/DTD/svg11.dtd" [
	<!ENTITY ns_svg "http://www.w3.org/2000/svg">
	<!ENTITY ns_xlink "http://www.w3.org/1999/xlink">
]>
<svg version="1.1" id="Layer_1" xmlns="http://www.w3.org/2000/svg" xmlns:xlink="http://www.w3.org/1999/xlink" width="508" height="567" viewBox="0 0 508 567" overflow="visible" enable-background="new 0 0 508 567" xml:space="preserve">
<g>
	<path fill-rule="evenodd" clip-rule="evenodd" fill="#FFFFFF" d="M29,34c1,0,2,0,3,0c6.946,9.473,14.664,17.944,22,27   c6.883,8.498,16.209,16.798,19,29c-9.888-3.406-16.334-14.724-23-24c-6.927-9.64-13.793-19.792-20-29   C28.828,36.838,29.157,35.177,29,34z"/>
	<path fill-rule="evenodd" clip-rule="evenodd" fill="#FFFFFF" d="M85,100c8.928,46.63,36.075,80.977,61,116   c14.764,20.746,31.146,40.098,46,60c-24.498-25.077-44.675-53.778-64-83c-19.125-28.921-43.632-57.138-49-98   c11.443,0.429,22.823,7.223,33,12c-0.437,1.23-1.28,2.054-3,2C100.791,103.359,93.129,103.098,85,100z"/>
	<path fill-rule="evenodd" clip-rule="evenodd" fill="#FFFFFF" d="M81,128c-0.184-0.851,0.39-0.943,1-1   c34.018,59.536,74.068,114.435,118,165c2.318,2.668,5.761,6.311,6,10c-9.291,0.952-12.964-10.07-18-16   c-1.438-1.692-3.487-3.188-5-5c-14.727-17.633-32.097-38.302-46-58c-10.356-14.673-21.124-29.663-31-45   C96.03,162.518,85.389,146.565,81,128z"/>
	<path fill-rule="evenodd" clip-rule="evenodd" fill="#FFFFFF" d="M330,178c17.849,14.136,16.698,41.83,18,66   c2.121,39.396,2.96,81.346,4,123c-11.035-11.93-12.48-29.88-16-46c-10.466-47.941-15.74-99.354-7-140   C328.718,179.385,329.945,179.278,330,178z"/>
	<path fill-rule="evenodd" clip-rule="evenodd" fill="#FFFFFF" d="M186,211c1.23,0.437,2.054,1.28,2,3   C186.77,213.563,185.946,212.72,186,211z"/>
	<path fill-rule="evenodd" clip-rule="evenodd" fill="#FFFFFF" d="M162,223c16.281,21.385,30.94,44.393,49,64   c-4.058,1.52-5.106-3.838-7-6c-10.518-12.007-21.764-26.93-32-41C168.181,234.75,163.144,228.98,162,223z"/>
	<path fill-rule="evenodd" clip-rule="evenodd" fill="#FFFFFF" d="M278,229c-3.008,3.659-7.662,5.671-13,7   C266.654,230.988,272.942,230.609,278,229z"/>
	<path fill-rule="evenodd" clip-rule="evenodd" fill="#FFFFFF" d="M280,233c-1.543,4.457-8.42,3.58-11,7   C267.406,236.374,276.413,234.771,280,233z"/>
	<path fill-rule="evenodd" clip-rule="evenodd" fill="#FFFFFF" d="M284,241c-1.356,3.643-5.83,4.17-9,6   C276.113,243.113,280.741,242.741,284,241z"/>
	<path fill-rule="evenodd" clip-rule="evenodd" fill="#FFFFFF" d="M278,249c3.666-0.333,4.037-3.963,9-3   c-2.034,5.103,0.384,7.741-1,13C282.627,256.373,279.851,253.15,278,249z"/>
	<path fill-rule="evenodd" clip-rule="evenodd" fill="#FFFFFF" d="M319,291c3.189,3.181,1.475,12.155,3,17   C318.819,304.514,319.96,296.706,319,291z"/>
	<path fill-rule="evenodd" clip-rule="evenodd" fill="#FFFFFF" d="M217,306c4.537-1.18,6.796,8.521,9,13   C221.065,316.602,221.451,308.883,217,306z"/>
	<path fill-rule="evenodd" clip-rule="evenodd" fill="#FFFFFF" d="M213,321c0.715,2.716-4.715-0.716-4,2   c-4.219-4.447-7.497-9.836-10-16C208.665,304.007,208.153,316.245,213,321z"/>
	<path fill-rule="evenodd" clip-rule="evenodd" fill="#FFFFFF" d="M208,306c4.676,2.991,6.271,9.062,9,14   C212.194,317.14,211.103,310.563,208,306z"/>
	<path fill-rule="evenodd" clip-rule="evenodd" fill="#FFFFFF" d="M226,320c3.061,1.354,5.938,6.821,5,9   C228.8,326.534,226.783,323.884,226,320z"/>
	<path fill-rule="evenodd" clip-rule="evenodd" fill="#FFFFFF" d="M210,323c6.082-0.748,6.582,4.085,8,8c-3.7,0.549-3.598,0.926-9,1   C209.204,328.871,208.326,324.659,210,323z"/>
	<path fill-rule="evenodd" clip-rule="evenodd" fill="#FFFFFF" d="M210,340c3.177,3.576,1.022,7.312,2,17   C209.248,352.127,210.569,349.528,210,340z"/>
	<path fill-rule="evenodd" clip-rule="evenodd" fill="#FFFFFF" d="M211,358c2.84,4.636,1.72,11.91,2,21   C210.274,372.749,211.729,369.631,211,358z"/>
	<path fill-rule="evenodd" clip-rule="evenodd" fill="#FFFFFF" d="M224,359c10.518,11.815,19.872,24.795,32,35   c-9.635,12.031-17.228,26.105-27,38c-3.612-11.531-2.292-23.346-3-37C225.37,382.853,224.229,371.229,224,359z"/>
	<path fill-rule="evenodd" clip-rule="evenodd" fill="#FFFFFF" d="M212,380c1.845,1.135,2.027,4.748,2,9   c-0.015,2.373,1.744,8.335-2,10C213.248,396.329,211.272,387.78,212,380z"/>
	<path fill-rule="evenodd" clip-rule="evenodd" fill="#FFFFFF" d="M213,400c2.127,1.157,1.835,4.904,2,9   c0.102,2.531-0.073,6.091,0,10C211.145,415.854,213.771,406.229,213,400z"/>
	<path fill-rule="evenodd" clip-rule="evenodd" fill="#FFFFFF" d="M382,434c-5.304-1.021,1.718-4.199,3-5   c6.783,2.55,11.815,6.852,15,13C394.191,440.736,388.073,427.128,382,434z"/>
	<path fill-rule="evenodd" clip-rule="evenodd" fill="#FFFFFF" d="M387,434c2.149,2.518,3.756,5.577,6,8   c-0.778,3.471-4.52,0.004-7,3c-2.768-2.232-4.425-5.575-5-10C382.182,433.849,384.535,433.868,387,434z"/>
	<path fill-rule="evenodd" clip-rule="evenodd" fill="#FFFFFF" d="M402,457c-9.377,4.424-14.071-2.633-18-11   C392.667,441.507,398.938,448.274,402,457z M390,453c1.16,0.839,2.681,1.319,5,1c-0.224-1.891,1.127-2.206,1-4   C394.084,448.202,389.843,449.719,390,453z"/>
	<path fill-rule="evenodd" clip-rule="evenodd" fill="#FFFFFF" d="M303,450c0.31-1.357,2.504-0.829,4-1   C306.69,450.357,304.496,449.829,303,450z"/>
	<path fill-rule="evenodd" clip-rule="evenodd" d="M396,450c0.127,1.794-1.224,2.109-1,4c-2.319,0.319-3.84-0.161-5-1   C389.843,449.719,394.084,448.202,396,450z"/>
	<path fill-rule="evenodd" clip-rule="evenodd" fill="#FFFFFF" d="M403,458c2.805,3.528,4.775,7.892,8,11   c-1.369,4.465-4.736,1.073-8,4c-4.832-2.502-5.698-8.969-10-12C396.467,457.901,397.613,458.515,403,458z M398,465   c3.16,0.16,6.035,0.035,7-2C401.84,462.84,398.965,462.965,398,465z"/>
	<path fill-rule="evenodd" clip-rule="evenodd" fill="#FFFFFF" d="M372,501c-1.306,4.361-2.489,8.844-5,12   c-19.643-15.357-37.542-32.458-56-49c-1.396,5.747,9.73,7.589,10,15c-15.393,12.288-28.88,26.436-43,40   c-13.941,13.394-28.631,26.034-41,41c-10.187-1.422-17.374-12.854-26-19c7.752-22.895,29.357-37.11,47-52   c1.533-1.294,2.435-3.737,4-5c16.365-13.202,34.231-22.912,55-21C343.231,465.415,355.241,484.025,372,501z"/>
	<path fill-rule="evenodd" clip-rule="evenodd" d="M405,463c-0.965,2.035-3.84,2.16-7,2C398.965,462.965,401.84,462.84,405,463z"/>
	<path fill-rule="evenodd" clip-rule="evenodd" fill="#FFFFFF" d="M416,484c-2.711-1.157-2.489-0.483-6,0   c-2.836-3.164-6.041-5.959-7-11C412.695,469.702,418.319,476.044,416,484z"/>
	<path fill-rule="evenodd" clip-rule="evenodd" fill="#FFFFFF" d="M434,477c-0.175-1.631,6.542-2.019,5,1   C437.839,477.161,436.319,476.681,434,477z"/>
	<path fill-rule="evenodd" clip-rule="evenodd" d="M0,0c5.871,0.271,8.502,7.988,13,13c6.145,6.849,12.545,14.321,19,17   c12.135,17.198,28.254,30.413,40,48c49.313,23.384,87.174,57.859,120,99c2.187,2.74,3.87,6.298,6,8c4.854,3.879,11.176,4.859,16,8   c13.263,8.637,22.732,21.998,32,37c2.257,0.403,2.86,2.215,6,3c2.785,0.696,10.165-2.541,17-6c3.328-1.684,6.897-2.702,8-5   c3.114,2.968,4.877,7.208,7,11c1.748,3.122,5.104,6.849,6,11c0.997,4.621-1.282,10.667,0,16c2.07,8.611,14.805,18.492,19,26   c6.636-33.38,8.684-65.674,14-102c0.636-4.342,0.051-9.873,4-13c8.061,1.398,18.081,17.04,21,27c3.499,11.942,2.853,29.358,4,46   c2.596,37.656,4.805,80.818,7,118c0.433,7.324-0.91,14.021,1,20c1.693,5.301,6.798,12.076,10,17c14.499,22.295,31.944,45.228,58,56   c21.64,8.946,35.936,14.94,55,23c12.373,5.23,22.264,9.54,25,25c-13.481-1.106-28.594-4.901-44-8c-18.864-3.794-32.125-8.807-53-7   c-10.052,8.157-18.504,12.726-31,8c-4.813,6.854-6.162,17.172-9,26c-17.012-11.655-30.68-26.653-47-39   c-9.579,4.456-16.574,13.018-24,20c-21.585,20.297-43.918,41.845-65,64c-10.785-7.882-19.492-17.842-30-26   c14.343-22.733,29.625-49.581,44-73c5.16-8.407,13.266-16.413,15-24c1.683-7.36-1.651-16.317-2-24c-0.316-6.976,2.198-14.967-2-22   c-4.48-0.818-5.879,5.052-8,8c-7.003,9.733-15.655,21.381-22,32c-9.227-5.106-13.978-14.688-22-21c0.28-19.801-0.192-42.625-1-65   c-0.317-8.785,0.081-19.839-2-27c-2.472-8.504-11.224-14.802-13-24c-25.308-29.875-48.428-63.15-72-96   c-11.847-16.509-22.843-33.172-32-52c-8.859-18.216-19.856-37.12-21-59C52.651,75.016,39.755,54.578,25,36   c0.489-3.156-1.802-3.531-1-7C15.57,19.763,9.349,8.317,0,0z M30,37c6.207,9.208,13.073,19.36,20,29   c6.666,9.276,13.112,20.594,23,24c-2.791-12.202-12.117-20.502-19-29c-7.336-9.056-15.054-17.527-22-27c-1,0-2,0-3,0   C29.157,35.177,28.828,36.838,30,37z M111,110c3.746-1.012,6.43,4.146,8,2C116.075,111.652,112.621,105.56,111,110z M109,109   c1.72,0.054,2.563-0.77,3-2c-10.177-4.777-21.557-11.571-33-12c5.368,40.862,29.875,69.079,49,98   c19.325,29.222,39.502,57.923,64,83c-14.854-19.902-31.236-39.254-46-60c-24.925-35.023-52.072-69.37-61-116   C93.129,103.098,100.791,103.359,109,109z M106,178c9.876,15.337,20.644,30.327,31,45c13.903,19.698,31.273,40.367,46,58   c1.513,1.812,3.562,3.308,5,5c5.036,5.93,8.709,16.952,18,16c-0.239-3.689-3.682-7.332-6-10c-43.932-50.565-83.982-105.464-118-165   c-0.61,0.057-1.184,0.149-1,1C85.389,146.565,96.03,162.518,106,178z M172,240c10.236,14.07,21.482,28.993,32,41   c1.894,2.162,2.942,7.52,7,6c-18.06-19.607-32.719-42.615-49-64C163.144,228.98,168.181,234.75,172,240z M166,155   c-12.536-10.799-27.708-24.289-48-24c4.271,37.087,23.903,67.412,43,93c0.128-6.819-5.148-12.242-8-18   c-10.317-20.832-15.001-40.722-15-59C146.074,148.274,156.117,152.833,166,155z M180,173c1.086,0.39,2.401,1.2,1,0   c-6.906-12.24-25.661-17.005-37-19c0.997,39.686,19.824,64.213,38,90c13.808,19.59,27.268,39.325,43,56c3.7-0.549,3.598-0.926,9-1   c13.565,25.252,33.634,47.74,53,66c2.301,2.17,7.947,3.545,7,8c-8.472-8.892-17.656-16.971-26-26c-8.461-9.156-15.78-19.59-25-28   c-1.771,4.896-3.554,9.779-6,14c3.552,0.485,7.354,5.929,7,7c-4.033-2.301-4.783-7.884-12-7c24.365,33.941,61.273,60.87,92,88   c13.926,12.296,23.064,21.931,37,35c10.562,9.906,17.973,21.528,29,15c6.235-10.396-4.909-15.911-9-25   c-2.23-4.955-2.582-9.494-3-16c0.736-3.264,4.657-3.343,5-7c-18.11-28.167-37.702-59.206-55-93c-7.962-15.555-15.585-33.018-26-48   c-4.55-6.544-10.573-14.191-16-21c-2.543-3.191-6.157-5.661-9-9c-6.437-7.56-9.008-16.702-21-14   c33.328,42.673,68.276,89.057,92,138c-20.946-32.72-40.465-66.869-65-96c-2.965,15.702-14.704,22.629-32,24   c11.465,13.534,22.724,27.276,33,42c-18.961-21.154-37.804-49.306-57-70c-2.623-2.828-5.548-7.186-10-5   c9.004,17.662,25.306,28.028,35,45c-11.013-9.326-19.192-21.742-29-33c-9.81-11.26-20.12-21.959-29-34   c-17.272-23.419-37.157-49.586-38-83C165.105,167.492,174.731,170.287,180,173z M286,259c1.384-5.259-1.034-7.897,1-13   c-4.963-0.963-5.334,2.667-9,3C279.851,253.15,282.627,256.373,286,259z M329,181c-8.74,40.646-3.466,92.059,7,140   c3.52,16.12,4.965,34.07,16,46c-1.04-41.654-1.879-83.604-4-123c-1.302-24.17-0.151-51.864-18-66   C329.945,179.278,328.718,179.385,329,181z M192,190c2.717,6.871,10.783,9.846,16,15c2.666,2.634,3.985,6.716,7,9   c2.418,1.832,5.794,1.926,8,4c2.559,2.407,3.434,6.581,6,9c2.723,2.568,7.32,3.796,10,6c3.338,2.744,4.542,5.807,8,8   c-10.443-23.752-28.615-44.451-52-52c0.555,0.003,1.135-0.81,0-1C194.706,191.484,192.294,187.916,192,190z M188,214   c0.054-1.72-0.77-2.563-2-3C185.946,212.72,186.77,213.563,188,214z M211,258c-10.947-11.386-16.931-27.736-24-43   C191.088,232.581,200.224,250.44,211,258z M265,236c5.338-1.329,9.992-3.341,13-7C272.942,230.609,266.654,230.988,265,236z    M269,240c2.58-3.42,9.457-2.543,11-7C276.413,234.771,267.406,236.374,269,240z M237,263c-1.884,1.391-5.759,1.29-5,4   c3.826-2.304,8.637-3.557,11-6c3.067-3.171,6.711-10.378,7-15c0.104-1.664,1.751-8.017-2-7   C250.461,247.007,244.141,257.729,237,263z M275,247c3.17-1.83,7.644-2.357,9-6C280.741,242.741,276.113,243.113,275,247z M260,258   c7.895,3.446,12.486,15.504,20,16c-6.787-7.159-13.922-16.899-20-24c-1.937-2.263-3.596-6.939-7-6   C251.06,248.966,259.258,252.39,260,258z M336,337c-7.228-29.505-8.377-50.113-13-77C324.949,284.495,325.202,312.41,336,337z    M317,263c1.87,6.843-1.094,18.604,3,27C318.654,281.449,320.405,269.938,317,263z M197,280c-2.775,0.993-2.829-5.682-5-2   C193.833,277.949,195.386,283.125,197,280z M315,280c-0.057,0.61-0.149,1.184-1,1c-0.438,9.477-1.854,11.345,3,19   C316.296,293.783,316.227,281.355,315,280z M203,288c-1.054-1.787-6.843-7.788-6-5C198.849,284.209,201.643,289.613,203,288z    M221,299c-4.568-1.452-6.578-10.729-11-9C214.559,291.461,216.791,300.515,221,299z M211,297c-2.204-0.369-4.948-8.922-6-4   C208.079,292.654,208.998,299.579,211,297z M322,308c-1.525-4.845,0.189-13.819-3-17C319.96,296.706,318.819,304.514,322,308z    M236,318c-3.056-0.723-3.644,1.022-6,1c1.241,3.092,2.466,6.2,5,8c1.827-4.84,6.088-9.846,1-11c2.483,0.15,4.15-0.517,5-2   c-5.994-9.313-8.845-12.187-19-10c0.925,6.075,5.242,8.758,7,14C231.983,318.178,235.121,314.155,236,318z M226,319   c-2.204-4.479-4.463-14.18-9-13C221.451,308.883,221.065,316.602,226,319z M199,307c2.503,6.164,5.781,11.553,10,16   c-0.715-2.716,4.715,0.716,4-2C208.153,316.245,208.665,304.007,199,307z M217,320c-2.729-4.938-4.324-11.009-9-14   C211.103,310.563,212.194,317.14,217,320z M231,329c0.938-2.179-1.939-7.646-5-9C226.783,323.884,228.8,326.534,231,329z M223,330   c-2.669-1.041-2.881-9.728-6-7C218.771,324.939,220.731,331.877,223,330z M209,332c5.402-0.074,5.3-0.451,9-1   c-1.418-3.915-1.918-8.748-8-8C208.326,324.659,209.204,328.871,209,332z M280,389c3.708,2.959,7.333,7.251,12,8   c-25.244-17.757-44.416-41.584-66-63C241.508,353.903,260.991,373.829,280,389z M230,350c-6.082-2.597-9.187-13.465-15-13   C220.993,339.686,223.945,350.706,230,350z M212,357c-0.978-9.688,1.177-13.424-2-17C210.569,349.528,209.248,352.127,212,357z    M220,345c13.259,21.415,28.628,42.589,50,57c10.598,7.146,21.802,13.333,32,21c10.003,7.52,18.267,17.56,29,23   C293.506,412.827,252.039,383.627,220,345z M332,449c1.122,0.212,1.557,1.109,2,2c-21.773-17.227-41.829-36.171-68-49   c-0.594,14.89,1.437,32.053,2,44c-6.123,8.544-11.032,18.301-17,27c17.279-11.73,34.514-27.873,55-28   c7.959,2.234,15.493,1.925,26,7c1.891,0.225,2.206-1.127,4-1c0.422,1.99,4.157,5.736,5,4C337.867,453.766,334.897,447.148,332,449z    M264,386c9.999,9.253,20.69,18.604,31,24c-19.767-15.824-40.898-33.152-58-51c-1.065-1.112-3.112-8.309-8-6   C241.105,364.144,252.499,375.357,264,386z M213,379c-0.28-9.09,0.84-16.364-2-21C211.729,369.631,210.274,372.749,213,379z    M226,395c0.708,13.654-0.612,25.469,3,37c9.772-11.895,17.365-25.969,27-38c-12.128-10.205-21.482-23.185-32-35   C224.229,371.229,225.37,382.853,226,395z M212,399c3.744-1.665,1.985-7.627,2-10c0.027-4.252-0.155-7.865-2-9   C211.272,387.78,213.248,396.329,212,399z M298,404c-0.078-2.334-3.87-6.023-5-4C295.323,400.677,295.677,403.323,298,404z    M215,419c-0.073-3.909,0.102-7.469,0-10c-0.165-4.096,0.127-7.843-2-9C213.771,406.229,211.145,415.854,215,419z M312,416   c-2.721-5.945-9.021-8.312-13-13C301.984,408.683,307.67,411.663,312,416z M315,417c-1.342-0.202-1.862-4.153-2,0   c11.279,9.055,21.669,18.997,32,29C336.717,434.616,324.985,426.682,315,417z M308,421c-1.364-0.719-6.367-5.916-5-3   C304.042,419.052,306.888,423.318,308,421z M312,427c4.725,0.824-2.297-6.197-3-3C309.933,425.067,312.688,424.312,312,427z    M322,433c-2.57-0.487-4.903-6.354-7-4C317.57,429.487,319.903,435.354,322,433z M381,435c0.575,4.425,2.232,7.768,5,10   c2.48-2.996,6.222,0.471,7-3c-2.244-2.423-3.851-5.482-6-8C384.535,433.868,382.182,433.849,381,435z M384,446   c3.929,8.367,8.623,15.424,18,11C398.938,448.274,392.667,441.507,384,446z M393,461c4.302,3.031,5.168,9.498,10,12   c3.264-2.927,6.631,0.465,8-4c-3.225-3.108-5.195-7.472-8-11C397.613,458.515,396.467,457.901,393,461z M403,473   c0.959,5.041,4.164,7.836,7,11c3.511-0.483,3.289-1.157,6,0C418.319,476.044,412.695,469.702,403,473z M400,442   c-3.185-6.148-8.217-10.45-15-13c-1.282,0.801-8.304,3.979-3,5C388.073,427.128,394.191,440.736,400,442z M337,446   c-5.605-1.742-9.467-10.513-14-10C327.969,438.379,332.224,446.757,337,446z M432,460c-10.1-4.567-20.844-8.489-31-13   c7.131,13.536,16.825,24.508,25,37c3.914-0.989,5.807,2.209,8,0c13.84,4.288,25.179,6.68,37,9c7.861,1.543,15.719,3.861,23,5   c2.03,0.317,5.22,0.948,7-1c-1.019-11.162-20.493-16.328-29-20c-12.815-5.531-29.451-14.652-40-15c-1.37,3.152,6.565,1.945,3,4   c-3.073-0.261-4.497-2.17-7-3c-0.156,1.177,0.172,2.839-1,3c0.287-6.162-10.043-0.456-11-3c1.124-3.413,3.876,0.315,5-2   c-2.576-1.757-7.225-1.442-9-4C421.26,459.269,426.855,462.207,432,460z M343,452c-1.364-0.719-6.367-5.916-5-3   C339.842,449.253,341.509,454.697,343,452z M245,482c0.638,3.216,4.681-0.765,5-1c12.724-9.372,25.406-24.02,41-29   c4.066-1.299,7.863-0.372,11-3C278.812,450.602,262.644,469.119,245,482z M307,449c-1.496,0.171-3.69-0.357-4,1   C304.496,449.829,306.69,450.357,307,449z M354,464c1.806,1.408,2.594,1.249,1-1c-1.389-1.959-8.75-7.365-11-8   C349.067,458.729,351.561,462.097,354,464z M364,464c-1.277-2.421-8.207-8.624-7-7C358.277,459.421,365.207,465.624,364,464z    M390,494c5.418-0.951,18.578-8.385,12-16c-1.346,4.715-2.535,6.863-5,9c-21.135,18.319-41.512-26.611-55-29   C356.536,467.941,371.835,497.188,390,494z M228,511c15.556-14.746,35.538-29.5,52-42c0.582-0.441,4.153-1.329,2-3   C261.712,478.712,243.18,493.18,228,511z M294,462c15.483-4.74,36.948-0.944,50,9c-5.566-6.516-14.259-10.492-22-12   c-13.488-2.627-27.982-0.265-40,7C286.671,467.482,289.07,463.509,294,462z M317,463c-20.769-1.912-38.635,7.798-55,21   c-1.565,1.263-2.467,3.706-4,5c-17.643,14.89-39.248,29.105-47,52c8.626,6.146,15.813,17.578,26,19   c12.369-14.966,27.059-27.606,41-41c14.12-13.564,27.607-27.712,43-40c-0.27-7.411-11.396-9.253-10-15   c18.458,16.542,36.357,33.643,56,49c2.511-3.156,3.694-7.639,5-12C355.241,484.025,343.231,465.415,317,463z M393,471   c-8.295,11.434-20.911,1.23-27-6C367.987,476.295,392.715,483.449,393,471z M361,470c-0.495-0.724-4.284-4.877-3-3   C359.68,469.454,361.688,471.004,361,470z M349,474c-0.682-1.985-3.045-2.288-4-4C344.726,472.369,348.954,475.251,349,474z    M377,485c5.658,6.025,24.99,2.208,22-12C399.236,486.102,384.487,487.742,377,485z M355,478c-1.329,0.146-3.721-3.363-4-1   C352.332,476.851,354.019,481.065,355,478z M357,480c-2.856-1.29-0.161,0.796,0,1C361.018,486.079,357.989,480.447,357,480z    M373,498c-2.428-4.92-8.744-11.236-12-12C365.211,489.789,368.617,494.383,373,498z"/>
	<path fill-rule="evenodd" clip-rule="evenodd" fill="#FFFFFF" d="M119,112c-1.57,2.146-4.254-3.012-8-2   C112.621,105.56,116.075,111.652,119,112z"/>
	<path fill-rule="evenodd" clip-rule="evenodd" fill="#FFFFFF" d="M138,147c-0.001,18.278,4.683,38.168,15,59   c2.852,5.758,8.128,11.181,8,18c-19.097-25.588-38.729-55.913-43-93c20.292-0.289,35.464,13.201,48,24   C156.117,152.833,146.074,148.274,138,147z"/>
	<path fill-rule="evenodd" clip-rule="evenodd" fill="#FFFFFF" d="M156,166c0.843,33.414,20.728,59.581,38,83   c8.88,12.041,19.19,22.74,29,34c9.808,11.258,17.987,23.674,29,33c-9.694-16.972-25.996-27.338-35-45c4.452-2.186,7.377,2.172,10,5   c19.196,20.694,38.039,48.846,57,70c-10.276-14.724-21.535-28.466-33-42c17.296-1.371,29.035-8.298,32-24   c24.535,29.131,44.054,63.28,65,96c-23.724-48.943-58.672-95.327-92-138c11.992-2.702,14.563,6.44,21,14   c2.843,3.339,6.457,5.809,9,9c5.427,6.809,11.45,14.456,16,21c10.415,14.982,18.038,32.445,26,48c17.298,33.794,36.89,64.833,55,93   c-0.343,3.657-4.264,3.736-5,7c0.418,6.506,0.77,11.045,3,16c4.091,9.089,15.235,14.604,9,25c-11.027,6.528-18.438-5.094-29-15   c-13.936-13.069-23.074-22.704-37-35c-30.727-27.13-67.635-54.059-92-88c7.217-0.884,7.967,4.699,12,7c0.354-1.071-3.448-6.515-7-7   c2.446-4.221,4.229-9.104,6-14c9.22,8.41,16.539,18.844,25,28c8.344,9.029,17.528,17.108,26,26c0.947-4.455-4.699-5.83-7-8   c-19.366-18.26-39.435-40.748-53-66c-5.402,0.074-5.3,0.451-9,1c-15.732-16.675-29.192-36.41-43-56   c-18.176-25.787-37.003-50.314-38-90c11.339,1.995,30.094,6.76,37,19c1.401,1.2,0.086,0.39-1,0   C174.731,170.287,165.105,167.492,156,166z M253,350c3.347,1.852,0.873-0.258,0-2c-3.389-0.649-4.953-8.329-8-6   C248.087,344.247,250.753,346.913,253,350z M337,394c-3.028-5.161-9.378-7.43-14-11c-14.087-10.882-26.621-25.015-38-35   C300.071,365.596,317.923,380.41,337,394z M275,370c-5.709-4.246-15.726-16.187-18-17C262.388,358.62,269.078,368.245,275,370z    M284,380c-3.698-2.616-6.137-8.644-7-7c2.39,1.851,5.543,7.661,9,10c1.072,0.726,6.292,3.586,6,1   C289.373,381.867,286.996,382.12,284,380z M327,393c-6.805-12.684-20.903-11.887-31-21C303.348,381.985,320.064,382.603,327,393z    M361,394c-2.221-1.818-4.813-4.724-7-8c-2.027-3.037-2.349-9.314-6-8C353.239,381.771,354.838,394.481,361,394z M309,396   c14.78,8.581,30.774,15.173,47,18c-1.649-3.708-6.561-3.44-9-4c-22.713-5.209-37.178-13.451-54-25   C296.604,390.188,303.21,392.639,309,396z M348,401c-0.732-5.268-7.221-4.779-10-8c0.502,3.831,5.278,3.389,7,6   c-6.19-1.81-12.552-3.448-17-7C330.986,398.681,341.361,397.972,348,401z M364,422c2.58,1.203-5.787-12.997-7-8   C360.979,415.021,361.941,419.059,364,422z"/>
	<path fill-rule="evenodd" clip-rule="evenodd" fill="#FFFFFF" d="M195,188c1.135,0.19,0.555,1.003,0,1   c23.385,7.549,41.557,28.248,52,52c-3.458-2.193-4.662-5.256-8-8c-2.68-2.204-7.277-3.432-10-6c-2.566-2.419-3.441-6.593-6-9   c-2.206-2.074-5.582-2.168-8-4c-3.015-2.284-4.334-6.366-7-9c-5.217-5.154-13.283-8.129-16-15   C192.294,187.916,194.706,191.484,195,188z"/>
	<path fill-rule="evenodd" clip-rule="evenodd" fill="#FFFFFF" d="M187,215c7.069,15.264,13.053,31.614,24,43   C200.224,250.44,191.088,232.581,187,215z"/>
	<path fill-rule="evenodd" clip-rule="evenodd" fill="#FFFFFF" d="M248,239c3.751-1.017,2.104,5.336,2,7   c-0.289,4.622-3.933,11.829-7,15c-2.363,2.443-7.174,3.696-11,6c-0.759-2.71,3.116-2.609,5-4   C244.141,257.729,250.461,247.007,248,239z"/>
	<path fill-rule="evenodd" clip-rule="evenodd" fill="#FFFFFF" d="M253,244c3.404-0.939,5.063,3.737,7,6   c6.078,7.101,13.213,16.841,20,24c-7.514-0.496-12.105-12.554-20-16C259.258,252.39,251.06,248.966,253,244z"/>
	<path fill-rule="evenodd" clip-rule="evenodd" fill="#FFFFFF" d="M323,260c4.623,26.887,5.772,47.495,13,77   C325.202,312.41,324.949,284.495,323,260z"/>
	<path fill-rule="evenodd" clip-rule="evenodd" fill="#FFFFFF" d="M320,290c-4.094-8.396-1.13-20.157-3-27   C320.405,269.938,318.654,281.449,320,290z"/>
	<path fill-rule="evenodd" clip-rule="evenodd" fill="#FFFFFF" d="M192,278c2.171-3.682,2.225,2.993,5,2   C195.386,283.125,193.833,277.949,192,278z"/>
	<path fill-rule="evenodd" clip-rule="evenodd" fill="#FFFFFF" d="M317,300c-4.854-7.655-3.438-9.523-3-19   c0.851,0.184,0.943-0.39,1-1C316.227,281.355,316.296,293.783,317,300z"/>
	<path fill-rule="evenodd" clip-rule="evenodd" fill="#FFFFFF" d="M197,283c-0.843-2.788,4.946,3.213,6,5   C201.643,289.613,198.849,284.209,197,283z"/>
	<path fill-rule="evenodd" clip-rule="evenodd" fill="#FFFFFF" d="M210,290c4.422-1.729,6.432,7.548,11,9   C216.791,300.515,214.559,291.461,210,290z"/>
	<path fill-rule="evenodd" clip-rule="evenodd" fill="#FFFFFF" d="M205,293c1.052-4.922,3.796,3.631,6,4   C208.998,299.579,208.079,292.654,205,293z"/>
	<path fill-rule="evenodd" clip-rule="evenodd" fill="#FFFFFF" d="M229,318c-1.758-5.242-6.075-7.925-7-14   c10.155-2.187,13.006,0.687,19,10c-0.85,1.483-2.517,2.15-5,2c5.088,1.154,0.827,6.16-1,11c-2.534-1.8-3.759-4.908-5-8   c2.356,0.022,2.944-1.723,6-1C235.121,314.155,231.983,318.178,229,318z"/>
	<path fill-rule="evenodd" clip-rule="evenodd" fill="#FFFFFF" d="M217,323c3.119-2.728,3.331,5.959,6,7   C220.731,331.877,218.771,324.939,217,323z"/>
	<path fill-rule="evenodd" clip-rule="evenodd" fill="#FFFFFF" d="M226,334c21.584,21.416,40.756,45.243,66,63   c-4.667-0.749-8.292-5.041-12-8C260.991,373.829,241.508,353.903,226,334z"/>
	<path fill-rule="evenodd" clip-rule="evenodd" fill="#FFFFFF" d="M215,337c5.813-0.465,8.918,10.403,15,13   C223.945,350.706,220.993,339.686,215,337z"/>
	<path fill-rule="evenodd" clip-rule="evenodd" d="M245,342c3.047-2.329,4.611,5.351,8,6c0.873,1.742,3.347,3.852,0,2   C250.753,346.913,248.087,344.247,245,342z"/>
	<path fill-rule="evenodd" clip-rule="evenodd" fill="#FFFFFF" d="M341,455c-0.843,1.736-4.578-2.01-5-4   c-1.794-0.127-2.109,1.225-4,1c-10.507-5.075-18.041-4.766-26-7c-20.486,0.127-37.721,16.27-55,28c5.968-8.699,10.877-18.456,17-27   c-0.563-11.947-2.594-29.11-2-44c26.171,12.829,46.227,31.773,68,49c-0.443-0.891-0.878-1.788-2-2   C334.897,447.148,337.867,453.766,341,455z"/>
	<path fill-rule="evenodd" clip-rule="evenodd" fill="#FFFFFF" d="M331,446c-10.733-5.44-18.997-15.48-29-23   c-10.198-7.667-21.402-13.854-32-21c-21.372-14.411-36.741-35.585-50-57C252.039,383.627,293.506,412.827,331,446z"/>
	<path fill-rule="evenodd" clip-rule="evenodd" d="M285,348c11.379,9.985,23.913,24.118,38,35c4.622,3.57,10.972,5.839,14,11   C317.923,380.41,300.071,365.596,285,348z"/>
	<path fill-rule="evenodd" clip-rule="evenodd" fill="#FFFFFF" d="M229,353c4.888-2.309,6.935,4.888,8,6   c17.102,17.848,38.233,35.176,58,51c-10.31-5.396-21.001-14.747-31-24C252.499,375.357,241.105,364.144,229,353z"/>
	<path fill-rule="evenodd" clip-rule="evenodd" d="M257,353c2.274,0.813,12.291,12.754,18,17   C269.078,368.245,262.388,358.62,257,353z"/>
	<path fill-rule="evenodd" clip-rule="evenodd" d="M292,384c0.292,2.586-4.928-0.274-6-1c-3.457-2.339-6.61-8.149-9-10   c0.863-1.644,3.302,4.384,7,7C286.996,382.12,289.373,381.867,292,384z"/>
	<path fill-rule="evenodd" clip-rule="evenodd" d="M296,372c10.097,9.113,24.195,8.316,31,21   C320.064,382.603,303.348,381.985,296,372z"/>
	<path fill-rule="evenodd" clip-rule="evenodd" d="M348,378c3.651-1.314,3.973,4.963,6,8c2.187,3.276,4.779,6.182,7,8   C354.838,394.481,353.239,381.771,348,378z"/>
	<path fill-rule="evenodd" clip-rule="evenodd" d="M293,385c16.822,11.549,31.287,19.791,54,25c2.439,0.56,7.351,0.292,9,4   c-16.226-2.827-32.22-9.419-47-18C303.21,392.639,296.604,390.188,293,385z"/>
	<path fill-rule="evenodd" clip-rule="evenodd" d="M328,392c4.448,3.552,10.81,5.19,17,7c-1.722-2.611-6.498-2.169-7-6   c2.779,3.221,9.268,2.732,10,8C341.361,397.972,330.986,398.681,328,392z"/>
	<path fill-rule="evenodd" clip-rule="evenodd" fill="#FFFFFF" d="M293,400c1.13-2.023,4.922,1.666,5,4   C295.677,403.323,295.323,400.677,293,400z"/>
	<path fill-rule="evenodd" clip-rule="evenodd" fill="#FFFFFF" d="M299,403c3.979,4.688,10.279,7.055,13,13   C307.67,411.663,301.984,408.683,299,403z"/>
	<path fill-rule="evenodd" clip-rule="evenodd" d="M357,414c1.213-4.997,9.58,9.203,7,8C361.941,419.059,360.979,415.021,357,414z"/>
	<path fill-rule="evenodd" clip-rule="evenodd" fill="#FFFFFF" d="M345,446c-10.331-10.003-20.721-19.945-32-29   c0.138-4.153,0.658-0.202,2,0C324.985,426.682,336.717,434.616,345,446z"/>
	<path fill-rule="evenodd" clip-rule="evenodd" fill="#FFFFFF" d="M303,418c-1.367-2.916,3.636,2.281,5,3   C306.888,423.318,304.042,419.052,303,418z"/>
	<path fill-rule="evenodd" clip-rule="evenodd" fill="#FFFFFF" d="M309,424c0.703-3.197,7.725,3.824,3,3   C312.688,424.312,309.933,425.067,309,424z"/>
	<path fill-rule="evenodd" clip-rule="evenodd" fill="#FFFFFF" d="M315,429c2.097-2.354,4.43,3.513,7,4   C319.903,435.354,317.57,429.487,315,429z"/>
	<path fill-rule="evenodd" clip-rule="evenodd" fill="#FFFFFF" d="M323,436c4.533-0.513,8.395,8.258,14,10   C332.224,446.757,327.969,438.379,323,436z"/>
	<path fill-rule="evenodd" clip-rule="evenodd" fill="#FFFFFF" d="M412,457c1.775,2.558,6.424,2.243,9,4   c-1.124,2.315-3.876-1.413-5,2c0.957,2.544,11.287-3.162,11,3c1.172-0.161,0.844-1.823,1-3c2.503,0.83,3.927,2.739,7,3   c3.565-2.055-4.37-0.848-3-4c10.549,0.348,27.185,9.469,40,15c8.507,3.672,27.981,8.838,29,20c-1.78,1.948-4.97,1.317-7,1   c-7.281-1.139-15.139-3.457-23-5c-11.821-2.32-23.16-4.712-37-9c-2.193,2.209-4.086-0.989-8,0c-8.175-12.492-17.869-23.464-25-37   c10.156,4.511,20.9,8.433,31,13C426.855,462.207,421.26,459.269,412,457z M427,466c-8.951-4.109-9.941,2.918-3,5   c0.956-1.862-2.995-3.342,0-4c3.943,1.724,7.115,4.218,10,7c-1.987,0.013-1.271,2.729-4,2c-2.473-1.07-5.429-2.27-2-4   c-1.377,0.043-2.196-0.471-3-1c-1.896,8.473,13.154,8.713,17,8c1.522-5.188-4.568-2.765-5-6c0.776-0.224,1.973-0.027,2-1   c-1.344-1.068-3.574-6.32-6-3c0.738,1.595,4.895-0.229,4,3C433.095,473.14,430.729,467.712,427,466z"/>
	<path fill-rule="evenodd" clip-rule="evenodd" d="M437,472c0.895-3.229-3.262-1.405-4-3c2.426-3.32,4.656,1.932,6,3   c-0.027,0.973-1.224,0.776-2,1c0.432,3.235,6.522,0.812,5,6c-3.846,0.713-18.896,0.473-17-8c0.804,0.529,1.623,1.043,3,1   c-3.429,1.73-0.473,2.93,2,4c2.729,0.729,2.013-1.987,4-2c-2.885-2.782-6.057-5.276-10-7c-2.995,0.658,0.956,2.138,0,4   c-6.941-2.082-5.951-9.109,3-5C430.729,467.712,433.095,473.14,437,472z M439,478c1.542-3.019-5.175-2.631-5-1   C436.319,476.681,437.839,477.161,439,478z"/>
	<path fill-rule="evenodd" clip-rule="evenodd" fill="#FFFFFF" d="M338,449c-1.367-2.916,3.636,2.281,5,3   C341.509,454.697,339.842,449.253,338,449z"/>
	<path fill-rule="evenodd" clip-rule="evenodd" fill="#FFFFFF" d="M302,449c-3.137,2.628-6.934,1.701-11,3   c-15.594,4.98-28.276,19.628-41,29c-0.319,0.235-4.362,4.216-5,1C262.644,469.119,278.812,450.602,302,449z"/>
	<path fill-rule="evenodd" clip-rule="evenodd" fill="#FFFFFF" d="M344,455c2.25,0.635,9.611,6.041,11,8   c1.594,2.249,0.806,2.408-1,1C351.561,462.097,349.067,458.729,344,455z"/>
	<path fill-rule="evenodd" clip-rule="evenodd" fill="#FFFFFF" d="M357,457c-1.207-1.624,5.723,4.579,7,7   C365.207,465.624,358.277,459.421,357,457z"/>
	<path fill-rule="evenodd" clip-rule="evenodd" fill="#FFFFFF" d="M342,458c13.488,2.389,33.865,47.319,55,29   c2.465-2.137,3.654-4.285,5-9c6.578,7.615-6.582,15.049-12,16C371.835,497.188,356.536,467.941,342,458z"/>
	<path fill-rule="evenodd" clip-rule="evenodd" fill="#FFFFFF" d="M282,466c2.153,1.671-1.418,2.559-2,3   c-16.462,12.5-36.444,27.254-52,42C243.18,493.18,261.712,478.712,282,466z"/>
	<path fill-rule="evenodd" clip-rule="evenodd" fill="#FFFFFF" d="M282,466c12.018-7.265,26.512-9.627,40-7   c7.741,1.508,16.434,5.484,22,12c-13.052-9.944-34.517-13.74-50-9C289.07,463.509,286.671,467.482,282,466z"/>
	<path fill-rule="evenodd" clip-rule="evenodd" fill="#FFFFFF" d="M366,465c6.089,7.23,18.705,17.434,27,6   C392.715,483.449,367.987,476.295,366,465z"/>
	<path fill-rule="evenodd" clip-rule="evenodd" fill="#FFFFFF" d="M358,467c-1.284-1.877,2.505,2.276,3,3   C361.688,471.004,359.68,469.454,358,467z"/>
	<path fill-rule="evenodd" clip-rule="evenodd" fill="#FFFFFF" d="M345,470c0.955,1.712,3.318,2.015,4,4   C348.954,475.251,344.726,472.369,345,470z"/>
	<path fill-rule="evenodd" clip-rule="evenodd" fill="#FFFFFF" d="M399,473c2.99,14.208-16.342,18.025-22,12   C384.487,487.742,399.236,486.102,399,473z"/>
	<path fill-rule="evenodd" clip-rule="evenodd" fill="#FFFFFF" d="M351,477c0.279-2.363,2.671,1.146,4,1   C354.019,481.065,352.332,476.851,351,477z"/>
	<path fill-rule="evenodd" clip-rule="evenodd" fill="#FFFFFF" d="M357,481c-0.161-0.204-2.856-2.29,0-1   C357.989,480.447,361.018,486.079,357,481z"/>
	<path fill-rule="evenodd" clip-rule="evenodd" fill="#FFFFFF" d="M361,486c3.256,0.764,9.572,7.08,12,12   C368.617,494.383,365.211,489.789,361,486z"/>
</g>
</svg>